<?xml version="1.0" encoding="UTF-8" standalone="no"?>
<!-- Created with Inkscape (http://www.inkscape.org/) -->

<svg
   version="1.1"
   id="svg2"
   xml:space="preserve"
   width="83.866669"
   height="95.933334"
   viewBox="0 0 83.866669 95.933334"
   sodipodi:docname="FlyingD_logo_yellow_072417.svg"
   inkscape:version="1.1.1 (3bf5ae0d25, 2021-09-20)"
   xmlns:inkscape="http://www.inkscape.org/namespaces/inkscape"
   xmlns:sodipodi="http://sodipodi.sourceforge.net/DTD/sodipodi-0.dtd"
   xmlns="http://www.w3.org/2000/svg"
   xmlns:svg="http://www.w3.org/2000/svg"><defs
     id="defs6" /><sodipodi:namedview
     id="namedview4"
     pagecolor="#ffffff"
     bordercolor="#666666"
     borderopacity="1.0"
     inkscape:pageshadow="2"
     inkscape:pageopacity="0.0"
     inkscape:pagecheckerboard="0"
     showgrid="false"
     inkscape:zoom="1.6086802"
     inkscape:cx="54.703228"
     inkscape:cy="82.054842"
     inkscape:window-width="1918"
     inkscape:window-height="2054"
     inkscape:window-x="-10"
     inkscape:window-y="0"
     inkscape:window-maximized="0"
     inkscape:current-layer="g8" /><g
     id="g8"
     inkscape:groupmode="layer"
     inkscape:label="ink_ext_XXXXXX"
     transform="matrix(1.3333333,0,0,-1.3333333,0,95.933333)"><g
       id="g9548"
       inkscape:export-filename="C:\Users\g04590\PycharmProjects\motoAmerica\imgs\logo_1024.png"
       inkscape:export-xdpi="409.60001"
       inkscape:export-ydpi="409.60001"><rect
         style="fill:#222222;fill-opacity:1;stroke:none;stroke-width:16.096;stroke-opacity:1"
         id="rect9122"
         width="180"
         height="180"
         x="-58.549999"
         y="-125.975"
         transform="scale(1,-1)" /><path
         d="m 52.0434,21.8816 c 0,-1.7539 -1.2071,-2.957 -2.7391,-2.957 -1.7051,0 -2.7578,1.332 -2.7578,2.957 0,1.7442 1.2078,2.961 2.7578,2.961 1.532,0 2.7391,-1.2168 2.7391,-2.961 z m 0.7648,0 c 0,2.1582 -1.6262,3.584 -3.5039,3.584 -1.8957,0 -3.5246,-1.4258 -3.5246,-3.584 0,-2.0351 1.4648,-3.5789 3.5246,-3.5789 1.8777,0 3.5039,1.4246 3.5039,3.5789 z m -4.2129,-0.3554 h 0.6152 l 1.0223,-1.6895 h 0.7375 l -1.1105,1.7442 c 0.5929,0.0625 1.0324,0.3632 1.0324,1.0781 0,0.8027 -0.4863,1.1426 -1.4465,1.1426 h -1.5019 v -3.9649 h 0.6515 z m 0,0.5566 v 1.1633 h 0.7852 c 0.3925,0 0.8613,-0.0598 0.8613,-0.5402 0,-0.577 -0.4277,-0.6231 -0.9172,-0.6231 h -0.7293"
         style="fill:#ffde00;fill-opacity:1;fill-rule:nonzero;stroke:none;stroke-width:0.1;stroke-opacity:1"
         id="path12" /><path
         d="m 4.63906,35.9941 c 0,10.0965 8.18394,18.2801 18.27934,18.2801 10.0968,0 18.2804,-8.1836 18.2804,-18.2801 0,-10.0957 -8.1836,-18.2793 -18.2804,-18.2793 -10.0954,0 -18.27934,8.1836 -18.27934,18.2793 z M 62.9008,35.9883 1.08594,71.952 21.0469,55.5223 C -6.76719,54.5449 -7.25898,18.5547 21.0367,16.4395 L 1.08594,0 62.9008,35.9883"
         style="fill:#ffde00;fill-opacity:1;fill-rule:nonzero;stroke:none;stroke-width:0.1;stroke-opacity:1"
         id="path16" /><path
         d="m 24.0961,39.698 h 2.5519 c 2.1833,0.0833 1.509,-3.1679 1.5321,-2.8984 -0.1418,-1.6933 -1.491,-4.6523 -4.3496,-4.5215 l -3.1157,0.0188 z M 8.79883,32.1316 7.33086,28.9121 H 29.7066 c 4.5879,-0.0402 7.6602,3.3699 8.0497,7.5652 0.3613,3.9043 -3.1805,6.6407 -6.6407,6.602 H 13.0074 l -1.6312,-3.5434 h 3.364 L 11.3277,32.1316 H 8.79883"
         style="fill:#ffde00;fill-opacity:1;fill-rule:nonzero;stroke:none;stroke-width:0.1;stroke-opacity:1"
         id="path18" /></g></g></svg>
